# xmcd
#
# Track frame offsets:
#	150
#	21171
#	39032
#	57478
#	71704
#	91552
#
# Disc length: 1468 seconds
#
# Revision: 0
# Processed by: cddbd v1.5.2PL0 Copyright (c) Steve Scherf et al.
# Submitted via: audiograbber 1.83.01
#
DISCID=4105ba06
DTITLE=JOHNNY REID - SBI109
DYEAR=1900
DGENRE=
TTITLE0=JOHNNY REID - DANCE WITH ME
TTITLE1=JOHNNY REID - A WOMAN LIKE YOU
TTITLE2=JOHNNY REID - THANK YOU
TTITLE3=JOHNNY REID - RIGHT OUT OF THE BLUE
TTITLE4=JOHNNY REID - TODAY I'M GONNA TRY TO CHANGE THE WORLD
TTITLE5=JOHNNY REID - KICKING STONES
EXTD=
EXTT0=
EXTT1=
EXTT2=
EXTT3=
EXTT4=
EXTT5=
PLAYORDER=
